<?xml version="1.0" encoding="utf-8"?>
<!-- Generator: Adobe Illustrator 17.0.0, SVG Export Plug-In . SVG Version: 6.00 Build 0)  -->
<!DOCTYPE svg PUBLIC "-//W3C//DTD SVG 1.1//EN" "http://www.w3.org/Graphics/SVG/1.1/DTD/svg11.dtd">
<svg version="1.1" id="Layer_1" xmlns="http://www.w3.org/2000/svg" xmlns:xlink="http://www.w3.org/1999/xlink" x="0px" y="0px"
	 width="150px" height="80px" viewBox="0 0 150 80" enable-background="new 0 0 150 80" xml:space="preserve">
<g>
	<path d="M28.967,51.98v6.374H12.325C6.187,58.354,3,55.285,3,49.03V36.872c0-6.256,3.187-9.325,9.325-9.325h9.797
		c6.138,0,9.207,3.069,9.207,9.325v0.118c0,6.138-3.069,9.089-9.207,9.089H11.38v-6.256h10.741c1.889,0,2.951-0.944,2.951-2.833
		v-0.118c0-2.007-1.062-2.951-2.951-2.951h-9.797c-2.007,0-2.951,0.944-2.951,2.951V49.03c0,2.007,0.944,2.951,2.951,2.951H28.967z
		 M35.813,15.39h6.256v42.964h-6.256V15.39z M53.282,58.354h-6.256V36.872c0-6.256,3.069-9.325,9.207-9.325h4.485v6.374h-4.485
		c-1.889,0-2.951,0.944-2.951,2.951V58.354z M83.616,51.98c1.889,0,2.951-0.944,2.951-2.833V36.872c0-2.007-1.062-2.951-2.951-2.951
		H73.82c-1.889,0-2.951,0.944-2.951,2.951V49.03c0,2.007,1.062,2.951,2.951,2.951H83.616z M64.613,36.872
		c0-6.256,3.069-9.325,9.207-9.325h9.797c6.138,0,9.325,3.069,9.325,9.325v12.275c0,6.138-3.187,9.207-9.325,9.207H73.82
		c-6.138,0-9.207-3.069-9.207-9.325V36.872z M106.515,46.079c-6.138,0-9.207-3.069-9.207-9.207c0-6.256,3.069-9.325,9.207-9.325
		h14.164v6.374h-14.164c-1.888,0-2.833,0.944-2.833,2.951c0,1.889,0.944,2.951,2.833,2.951h7.318c6.256,0,9.325,3.069,9.325,9.207
		c0,6.256-3.069,9.325-9.325,9.325H99.315V51.98h14.518c2.007,0,2.951-0.944,2.951-2.951c0-1.889-0.944-2.951-2.951-2.951H106.515z"
		/>
	<path fill="#B41738" d="M20.823,73.462c1.298,0,1.889,0.708,1.889,2.007v1.534c0,1.298-0.59,1.889-1.889,1.889h-4.485v-1.298h4.485
		c0.354,0,0.59-0.236,0.59-0.59v-1.534c0-0.472-0.236-0.708-0.59-0.708h-3.069c-1.298,0-1.889-0.59-1.889-1.889V71.81
		c0-1.18,0.59-1.889,1.889-1.889h4.485v1.298h-4.485c-0.354,0-0.59,0.236-0.59,0.59v1.062c0,0.472,0.236,0.59,0.59,0.59H20.823z
		 M28.731,77.593c0.472,0,0.59-0.236,0.59-0.59V71.81c0-0.354-0.118-0.59-0.59-0.59h-3.069c-0.354,0-0.59,0.236-0.59,0.59v5.193
		c0,0.354,0.236,0.59,0.59,0.59H28.731z M23.774,71.81c0-1.18,0.59-1.889,1.889-1.889h3.069c1.298,0,1.889,0.708,1.889,1.889v5.193
		c0,1.298-0.59,1.889-1.889,1.889h-3.069c-1.298,0-1.889-0.708-1.889-1.889V71.81z M31.682,69.921h1.298v7.672h4.013v1.298h-5.311
		V69.921z M40.77,75.587h2.125l-1.298-3.541l-2.715,6.846h-1.416l3.541-8.97h1.062l3.659,8.97h-1.534l-0.708-2.007H40.18
		L40.77,75.587z M47.734,71.22v7.672h-1.298v-8.97h3.895c1.298,0,2.007,0.708,2.007,1.889v1.062c0,1.298-0.708,1.889-2.007,1.889
		h-0.472l2.833,4.131h-1.652l-2.951-4.367v-1.062h2.243c0.472,0,0.59-0.118,0.59-0.59V71.81c0-0.354-0.118-0.59-0.59-0.59H47.734z
		 M60.836,73.462c1.298,0,2.007,0.708,2.007,2.007v1.534c0,1.298-0.708,1.889-2.007,1.889h-4.485v-1.298h4.485
		c0.472,0,0.59-0.236,0.59-0.59v-1.534c0-0.472-0.118-0.708-0.59-0.708h-3.069c-1.298,0-1.889-0.59-1.889-1.889V71.81
		c0-1.18,0.59-1.889,1.889-1.889h4.485v1.298h-4.485c-0.354,0-0.59,0.236-0.59,0.59v1.062c0,0.472,0.236,0.59,0.59,0.59H60.836z
		 M66.502,74.643l-3.541-4.721h1.652l2.597,3.541l2.479-3.541h1.771L67.8,74.643v4.249h-1.298V74.643z M76.652,73.462
		c1.298,0,2.007,0.708,2.007,2.007v1.534c0,1.298-0.708,1.889-2.007,1.889h-4.485v-1.298h4.485c0.472,0,0.59-0.236,0.59-0.59v-1.534
		c0-0.472-0.118-0.708-0.59-0.708h-3.069c-1.18,0-1.889-0.59-1.889-1.889V71.81c0-1.18,0.708-1.889,1.889-1.889h4.485v1.298h-4.485
		c-0.354,0-0.59,0.236-0.59,0.59v1.062c0,0.472,0.236,0.59,0.59,0.59H76.652z M79.367,69.921h6.256v1.298h-2.479v7.672h-1.298V71.22
		h-2.479V69.921z M87.748,74.761v2.833h4.013v1.298h-5.429v-8.97h5.429v1.298h-4.013v2.243h4.013v1.298H87.748z M92.823,69.921h1.18
		l2.715,6.846l2.715-6.846h1.18v8.97h-1.298v-5.193l-2.007,5.193h-1.18l-2.007-5.193v5.193h-1.298V69.921z M106.633,73.462
		c1.298,0,1.889,0.708,1.889,2.007v1.534c0,1.298-0.59,1.889-1.889,1.889h-4.485v-1.298h4.485c0.472,0,0.59-0.236,0.59-0.59v-1.534
		c0-0.472-0.118-0.708-0.59-0.708h-3.069c-1.298,0-1.889-0.59-1.889-1.889V71.81c0-1.18,0.59-1.889,1.889-1.889h4.485v1.298h-4.485
		c-0.354,0-0.59,0.236-0.59,0.59v1.062c0,0.472,0.236,0.59,0.59,0.59H106.633z"/>
	<path fill="#B41738" d="M124.102,1.108c5.193,1.889,10.033,4.957,13.928,8.852c4.013,4.013,7.082,8.734,8.971,14.046l-1.534,0.472
		c-1.77-5.075-4.721-9.561-8.498-13.338c-3.777-3.895-8.38-6.846-13.456-8.616L124.102,1.108z"/>
	<path fill="#B41738" d="M120.089,11.967c3.659,1.298,7.082,3.423,9.797,6.256c2.715,2.715,4.957,6.02,6.256,9.679l-1.534,0.472
		c-1.18-3.423-3.187-6.492-5.784-9.089s-5.784-4.721-9.207-5.902L120.089,11.967z"/>
	<path fill="#B41738" d="M122.095,6.538c4.485,1.534,8.498,4.249,11.921,7.554c3.305,3.305,5.902,7.436,7.554,11.803l-1.534,0.59
		c-1.416-4.249-4.013-8.144-7.2-11.331c-3.187-3.187-6.964-5.666-11.213-7.2L122.095,6.538z"/>
</g>
</svg>
