<?xml version="1.0" encoding="utf-8"?>
<!-- Generator: Adobe Illustrator 17.0.0, SVG Export Plug-In . SVG Version: 6.00 Build 0)  -->
<!DOCTYPE svg PUBLIC "-//W3C//DTD SVG 1.1//EN" "http://www.w3.org/Graphics/SVG/1.1/DTD/svg11.dtd">
<svg version="1.1" id="Layer_1" xmlns="http://www.w3.org/2000/svg" xmlns:xlink="http://www.w3.org/1999/xlink" x="0px" y="0px"
	 width="150px" height="80px" viewBox="0 0 150 80" enable-background="new 0 0 150 80" xml:space="preserve">
<g>
	<path fill="#131414" d="M28.946,52.029v6.369H12.317C6.066,58.398,3,55.214,3,49.081V36.934c0-6.251,3.066-9.317,9.317-9.317h9.789
		c6.133,0,9.199,3.066,9.199,9.317l0,0c0,6.133-3.066,9.199-9.199,9.199h-10.85v-6.369h10.85c1.887,0,2.83-0.943,2.83-2.83l0,0
		c0-2.005-0.943-2.948-2.83-2.948h-9.789c-2.005,0-2.948,0.944-2.948,2.948v12.147c0,2.005,0.943,2.948,2.948,2.948H28.946z
		 M35.786,15.351h6.251v43.047h-6.251V15.351z M53.359,58.398H46.99V36.934c0-6.251,3.066-9.317,9.199-9.317h4.482v6.369h-4.482
		c-1.887,0-2.83,0.944-2.83,2.948V58.398z M83.55,52.029c2.005,0,2.948-0.943,2.948-2.83V36.934c0-2.005-0.943-2.948-2.948-2.948
		h-9.789c-1.887,0-2.83,0.944-2.83,2.948v12.147c0,2.005,0.943,2.948,2.83,2.948H83.55z M64.563,36.934
		c0-6.251,3.066-9.317,9.199-9.317h9.789c6.251,0,9.317,3.066,9.317,9.317v12.265c0,6.133-3.066,9.199-9.317,9.199h-9.789
		c-6.133,0-9.199-3.184-9.199-9.317V36.934z M106.548,46.133c-6.251,0-9.317-3.066-9.317-9.199c0-6.251,3.066-9.317,9.317-9.317
		H120.7v6.369h-14.152c-2.005,0-2.948,0.944-2.948,2.948c0,1.887,0.943,2.83,2.948,2.83h7.312c6.133,0,9.317,3.184,9.317,9.317
		s-3.184,9.317-9.317,9.317H99.236v-6.369h14.624c2.005,0,2.948-0.943,2.948-2.948c0-2.005-0.943-2.948-2.948-2.948H106.548z"/>
	<path fill="#B41738" d="M12.789,73.494c1.297,0,2.005,0.708,2.005,2.005v1.533c0,1.297-0.708,1.887-2.005,1.887H8.307v-1.297h4.482
		c0.472,0,0.708-0.236,0.708-0.59v-1.533c0-0.472-0.236-0.708-0.708-0.708H9.84c-1.297,0-2.005-0.59-2.005-1.887v-1.061
		c0-1.297,0.708-1.887,2.005-1.887h4.482v1.297H9.84c-0.472,0-0.708,0.236-0.708,0.59v1.061c0,0.472,0.236,0.59,0.708,0.59H12.789z
		 M17.152,74.791v2.83h4.01v1.297h-5.425v-8.963h5.425v1.297h-4.01v2.241h4.01v1.297H17.152z M28.12,77.622v1.297h-4.01
		c-1.297,0-1.887-0.708-1.887-1.887v-5.189c0-1.297,0.59-1.887,1.887-1.887h4.01v1.297h-4.01c-0.354,0-0.59,0.236-0.59,0.59v5.189
		c0,0.354,0.236,0.59,0.59,0.59H28.12z M34.135,77.622c0.354,0,0.59-0.236,0.59-0.59v-7.076h1.297v7.076
		c0,1.297-0.59,1.887-1.887,1.887h-3.066c-1.297,0-2.005-0.708-2.005-1.887v-7.076h1.415v7.076c0,0.354,0.118,0.59,0.59,0.59H34.135
		z M38.381,71.253v7.666h-1.297v-8.963h3.892c1.297,0,2.005,0.59,2.005,1.887v1.061c0,1.297-0.708,1.887-2.005,1.887h-0.472
		l2.83,4.128h-1.533l-3.066-4.364v-1.061h2.241c0.472,0,0.59-0.118,0.59-0.59v-1.061c0-0.354-0.118-0.59-0.59-0.59H38.381z
		 M43.924,69.956h1.415v8.963h-1.415V69.956z M46.047,69.956h6.251v1.297h-2.359v7.666h-1.415v-7.666h-2.477V69.956z M55.953,74.673
		l-3.656-4.717h1.769l2.595,3.538l2.477-3.538h1.769l-3.656,4.717v4.246h-1.297V74.673z M68.69,73.494
		c1.297,0,1.887,0.708,1.887,2.005v1.533c0,1.297-0.59,1.887-1.887,1.887h-4.482v-1.297h4.482c0.354,0,0.59-0.236,0.59-0.59v-1.533
		c0-0.472-0.236-0.708-0.59-0.708h-3.066c-1.297,0-1.887-0.59-1.887-1.887v-1.061c0-1.297,0.59-1.887,1.887-1.887h4.482v1.297
		h-4.482c-0.354,0-0.59,0.236-0.59,0.59v1.061c0,0.472,0.236,0.59,0.59,0.59H68.69z M74.351,74.673l-3.656-4.717h1.651l2.595,3.538
		l2.595-3.538h1.651l-3.538,4.717v4.246h-1.297V74.673z M84.494,73.494c1.297,0,2.005,0.708,2.005,2.005v1.533
		c0,1.297-0.708,1.887-2.005,1.887h-4.482v-1.297h4.482c0.472,0,0.59-0.236,0.59-0.59v-1.533c0-0.472-0.118-0.708-0.59-0.708h-3.066
		c-1.297,0-1.887-0.59-1.887-1.887v-1.061c0-1.297,0.59-1.887,1.887-1.887h4.482v1.297h-4.482c-0.354,0-0.59,0.236-0.59,0.59v1.061
		c0,0.472,0.236,0.59,0.59,0.59H84.494z M87.206,69.956h6.251v1.297H90.98v7.666h-1.297v-7.666h-2.477V69.956z M95.58,74.791v2.83
		h4.01v1.297h-5.425v-8.963h5.425v1.297h-4.01v2.241h4.01v1.297H95.58z M100.651,69.956h1.179l2.713,6.84l2.713-6.84h1.179v8.963
		h-1.297V73.73l-2.005,5.189h-1.179l-2.005-5.189v5.189h-1.297V69.956z M114.45,73.494c1.297,0,2.005,0.708,2.005,2.005v1.533
		c0,1.297-0.708,1.887-2.005,1.887h-4.482v-1.297h4.482c0.472,0,0.59-0.236,0.59-0.59v-1.533c0-0.472-0.118-0.708-0.59-0.708h-3.066
		c-1.297,0-1.887-0.59-1.887-1.887v-1.061c0-1.297,0.59-1.887,1.887-1.887h4.482v1.297h-4.482c-0.354,0-0.59,0.236-0.59,0.59v1.061
		c0,0.472,0.236,0.59,0.59,0.59H114.45z"/>
	<path fill="#B41738" d="M124.12,1.081c5.189,1.887,10.025,4.953,13.916,8.963c3.892,3.892,7.076,8.727,8.963,13.916l-1.533,0.472
		c-1.769-4.953-4.717-9.553-8.491-13.327c-3.774-3.774-8.373-6.722-13.445-8.609L124.12,1.081z"/>
	<path fill="#B41738" d="M120.111,11.931c3.656,1.297,6.958,3.538,9.789,6.251c2.713,2.713,4.835,6.133,6.133,9.789l-1.415,0.472
		c-1.179-3.42-3.302-6.604-5.897-9.199c-2.595-2.595-5.661-4.6-9.081-5.897L120.111,11.931z"/>
	<path fill="#B41738" d="M122.115,6.506c4.364,1.651,8.491,4.246,11.794,7.548c3.42,3.42,6.015,7.43,7.666,11.912l-1.533,0.472
		c-1.533-4.246-4.01-8.02-7.194-11.204s-7.076-5.779-11.322-7.312L122.115,6.506z"/>
</g>
</svg>
