<?xml version="1.0" standalone="no"?>
<!DOCTYPE svg PUBLIC "-//W3C//DTD SVG 20010904//EN"
 "http://www.w3.org/TR/2001/REC-SVG-20010904/DTD/svg10.dtd">
<svg version="1.0" xmlns="http://www.w3.org/2000/svg"
 width="700.000000pt" height="700.000000pt" viewBox="0 0 700.000000 700.000000"
 preserveAspectRatio="xMidYMid meet">
<metadata>
Created by potrace 1.14, written by Peter Selinger 2001-2017
</metadata>
<g transform="translate(0.000000,700.000000) scale(0.100000,-0.100000)"
fill="#000000" stroke="none">
<path d="M1247 6833 c-23 -37 -136 -328 -130 -333 5 -4 58 -27 118 -50 431
-166 952 -419 1345 -653 101 -60 371 -228 385 -239 6 -5 35 -25 67 -46 208
-137 684 -493 780 -584 7 -7 29 -26 48 -42 42 -34 153 -132 228 -201 30 -27
69 -63 86 -78 103 -95 399 -395 510 -517 32 -36 73 -81 90 -100 225 -247 635
-787 801 -1054 11 -18 57 -91 101 -162 274 -437 544 -981 739 -1491 54 -141
60 -151 79 -143 12 5 82 27 156 50 166 51 190 60 190 72 0 5 -34 96 -76 201
-71 178 -105 258 -195 457 -51 115 -250 504 -308 604 -28 49 -51 91 -51 92 0
15 -224 375 -360 579 -279 420 -666 907 -990 1246 -369 386 -722 716 -1005
939 -39 30 -72 57 -75 60 -8 9 -312 236 -378 282 -82 58 -455 304 -467 309 -5
2 -71 40 -145 85 -74 45 -166 98 -205 119 -38 21 -90 49 -115 63 -265 148
-764 377 -1099 503 -110 41 -117 43 -124 32z"/>
<path d="M751 5497 c-5 -12 -36 -88 -70 -169 -34 -80 -61 -149 -61 -151 0 -5
4 -7 145 -61 332 -127 660 -287 1036 -503 99 -57 208 -125 338 -212 79 -53
151 -100 160 -106 9 -5 32 -22 51 -36 19 -14 80 -59 135 -100 174 -128 375
-290 515 -415 211 -187 344 -316 530 -511 683 -716 1226 -1571 1570 -2470 24
-62 48 -113 55 -113 6 0 31 6 56 14 24 8 104 33 176 56 l133 41 -16 42 c-9 23
-20 51 -24 62 -5 11 -34 81 -64 155 -501 1239 -1357 2381 -2421 3231 -515 411
-1152 799 -1745 1064 -58 26 -118 53 -135 60 -31 14 -208 87 -303 124 l-53 21
-8 -23z"/>
<path d="M256 4148 c-39 -108 -96 -282 -96 -294 0 -7 10 -16 23 -20 12 -4 92
-36 177 -71 248 -103 490 -225 780 -394 162 -94 560 -369 695 -481 237 -196
372 -317 534 -479 362 -362 623 -690 923 -1159 171 -267 397 -732 504 -1037
10 -29 23 -53 28 -53 17 0 320 101 329 110 9 8 -75 233 -160 430 -99 226 -304
622 -398 770 -13 19 -55 87 -96 150 -128 201 -289 423 -438 605 -128 156 -211
246 -386 420 -197 197 -327 313 -535 479 -47 38 -94 76 -105 85 -102 84 -494
354 -648 447 -27 16 -61 36 -75 45 -180 108 -513 278 -715 363 -59 25 -110 46
-113 46 -2 0 -23 9 -47 19 -40 18 -154 61 -162 61 -2 0 -10 -19 -19 -42z"/>
</g>
</svg>
